<?xml version="1.0" standalone="no"?>
<!DOCTYPE svg PUBLIC "-//W3C//DTD SVG 20010904//EN"
 "http://www.w3.org/TR/2001/REC-SVG-20010904/DTD/svg10.dtd">
<svg version="1.0" xmlns="http://www.w3.org/2000/svg"
 width="224.000000pt" height="224.000000pt" viewBox="0 0 224.000000 224.000000"
 preserveAspectRatio="xMidYMid meet">

<g transform="translate(0.000000,224.000000) scale(0.100000,-0.100000)"
fill="#000000" stroke="none">
<path d="M993 1930 c-84 -12 -193 -49 -273 -92 -193 -103 -328 -263 -402 -478
-32 -92 -33 -100 -33 -255 0 -155 1 -163 33 -255 80 -233 243 -411 462 -507
86 -38 93 -39 114 -17 12 11 16 36 16 98 l0 82 -71 -4 c-119 -7 -178 27 -229
133 -12 25 -42 62 -66 83 -52 43 -56 62 -13 62 45 0 67 -15 139 -91 50 -55 74
-72 105 -79 46 -10 135 5 135 24 0 7 10 33 23 57 l22 45 -64 12 c-190 37 -295
158 -308 358 -7 95 12 170 55 230 21 28 27 45 21 59 -12 31 -9 126 4 165 12
33 15 35 52 33 23 -2 75 -20 120 -42 76 -39 82 -40 125 -29 58 14 262 14 321
0 43 -11 49 -10 110 23 84 44 158 63 170 44 20 -32 31 -119 20 -167 -9 -40 -8
-51 8 -72 58 -81 77 -165 61 -277 -25 -185 -123 -289 -306 -325 -32 -6 -60
-12 -62 -13 -2 -1 7 -20 20 -41 21 -35 23 -55 28 -203 6 -198 6 -198 103 -157
117 49 190 99 282 191 182 182 268 425 237 674 -58 470 -490 799 -959 731z"/>
<path d="M610 721 c0 -5 5 -13 10 -16 6 -3 10 -2 10 4 0 5 -4 13 -10 16 -5 3
-10 2 -10 -4z"/>
<path d="M640 670 c0 -5 7 -10 16 -10 8 0 12 5 9 10 -3 6 -10 10 -16 10 -5 0
-9 -4 -9 -10z"/>
<path d="M682 628 c5 -15 28 -23 28 -10 0 5 -7 13 -16 16 -10 4 -14 1 -12 -6z"/>
<path d="M740 590 c0 -5 7 -10 16 -10 8 0 12 5 9 10 -3 6 -10 10 -16 10 -5 0
-9 -4 -9 -10z"/>
<path d="M875 591 c-6 -11 9 -23 19 -14 9 9 7 23 -3 23 -6 0 -12 -4 -16 -9z"/>
<path d="M805 580 c-3 -5 3 -10 15 -10 12 0 18 5 15 10 -3 6 -10 10 -15 10 -5
0 -12 -4 -15 -10z"/>
</g>
</svg>
