<?xml version="1.0" standalone="no"?>
<!DOCTYPE svg PUBLIC "-//W3C//DTD SVG 20010904//EN"
 "http://www.w3.org/TR/2001/REC-SVG-20010904/DTD/svg10.dtd">
<svg version="1.0" xmlns="http://www.w3.org/2000/svg"
 width="225.000000pt" height="225.000000pt" viewBox="0 0 225.000000 225.000000"
 preserveAspectRatio="xMidYMid meet">

<g transform="translate(0.000000,225.000000) scale(0.100000,-0.100000)"
fill="#000000" stroke="none">
<path d="M973 1925 c-399 -72 -682 -435 -660 -845 7 -124 32 -216 87 -325 188
-371 623 -538 1015 -390 244 91 423 290 497 550 18 65 22 105 22 210 0 182
-34 301 -126 442 -181 278 -507 418 -835 358z m249 -386 c164 -35 288 -164
319 -332 39 -209 -122 -426 -338 -457 -72 -10 -118 -5 -195 21 l-57 19 -90
-24 c-83 -23 -91 -23 -105 -7 -13 15 -11 24 19 93 l33 76 -24 49 c-110 221 19
491 267 557 67 18 103 19 171 5z"/>
<path d="M1021 1449 c-66 -26 -144 -100 -174 -167 -17 -37 -22 -66 -22 -138 0
-83 3 -96 32 -153 l32 -63 -20 -40 c-11 -22 -18 -42 -15 -45 2 -3 27 2 55 10
49 14 53 14 113 -10 53 -22 73 -25 142 -21 124 7 212 62 272 170 27 49 29 61
29 153 0 85 -3 106 -23 143 -34 63 -84 114 -144 147 -73 40 -196 46 -277 14z
m39 -151 c23 -38 25 -59 8 -106 -13 -34 -12 -35 39 -82 64 -59 88 -67 109 -34
20 30 51 31 95 1 43 -29 46 -47 15 -83 -20 -25 -32 -29 -73 -29 -95 0 -225 92
-279 197 -28 55 -30 87 -9 128 26 50 67 53 95 8z"/>
</g>
</svg>
