<?xml version="1.0" standalone="no"?>
<!DOCTYPE svg PUBLIC "-//W3C//DTD SVG 20010904//EN"
 "http://www.w3.org/TR/2001/REC-SVG-20010904/DTD/svg10.dtd">
<svg version="1.0" xmlns="http://www.w3.org/2000/svg"
 width="151.000000pt" height="151.000000pt" viewBox="0 0 151.000000 151.000000"
 preserveAspectRatio="xMidYMid meet">

<g transform="translate(0.000000,151.000000) scale(0.100000,-0.100000)"
fill="#000000" stroke="none">
<path d="M1245 1314 c-93 -36 -282 -108 -420 -161 -816 -312 -825 -316 -825
-348 0 -26 42 -45 216 -99 l181 -57 408 256 c224 140 413 255 421 255 7 0 15
-4 18 -8 4 -7 -538 -503 -640 -587 -7 -6 -14 -52 -18 -115 -4 -58 -9 -137 -13
-177 -5 -69 -5 -72 15 -66 12 3 65 47 119 98 l99 93 183 -134 c149 -109 190
-134 217 -134 24 0 38 7 49 24 16 23 255 1115 255 1160 0 37 -28 66 -63 66
-18 0 -108 -30 -202 -66z"/>
</g>
</svg>
